<?xml version="1.0" encoding="utf-8"?>
<!-- Generator: Adobe Illustrator 25.3.1, SVG Export Plug-In . SVG Version: 6.00 Build 0)  -->
<svg version="1.1" id="Layer_1" xmlns="http://www.w3.org/2000/svg" xmlns:xlink="http://www.w3.org/1999/xlink" x="0px" y="0px"
	 viewBox="0 0 193.3 32.6" style="enable-background:new 0 0 193.3 32.6;" xml:space="preserve">
<style type="text/css">
	.st0{fill:#FFFFFF;}
</style>
<g>
	<g>
		<path class="st0" d="M2.2,2.3v27.8H30V2.3H2.2z M16.4,12.4h-0.7v5c0,2.9-1,4.3-3.7,4.3c-1.5,0-2.6-0.6-3.2-1.5
			c-0.5-0.8-0.5-1.7-0.5-2.8v-5H7.7v-1.9h3.5v1.9h-0.7v4.4c0,1.8,0.2,2.7,1.5,2.7c1.3,0,1.5-0.9,1.5-2.7v-4.4h-0.7v-1.9h3.5V12.4z
			 M24.5,13.5h-1.9v-1h-2.9v2.6h2.6V17l-2.6,0v2.8h0.7v1.9h-3.5v-1.9h0.7v-7.3h-0.7v-1.9h7.6V13.5z"/>
	</g>
	<g>
		<g>
			<path class="st0" d="M43.7,9.1c2.4,0,3.7,1.3,3.7,3.3c0,2-1.4,3.2-3.7,3.2h-2.3V9.1H43.7z M43.7,14.1c1.3,0,2-0.5,2-1.7
				c0-1.2-0.6-1.7-2-1.7h-0.6v3.5H43.7z"/>
			<path class="st0" d="M49.2,15.6V9.1H51v6.5H49.2z"/>
			<path class="st0" d="M55.1,15.6l-2.5-6.5h1.9l1.3,4.1c0.1,0.2,0.1,0.4,0.2,0.7c0.1-0.2,0.1-0.4,0.2-0.7l1.4-4.1h1.8L57,15.6H55.1
				z"/>
			<path class="st0" d="M61.1,15.6V9.1h1.7v6.5H61.1z"/>
			<path class="st0" d="M69.6,10.9c-1-0.4-1.5-0.5-2.1-0.5c-0.4,0-0.7,0.1-0.7,0.4c0,0.3,0.2,0.4,1.6,0.9c1.3,0.4,1.8,0.9,1.8,2
				c0,1.2-0.9,2-2.4,2c-0.8,0-2.2-0.3-3.1-0.9l0.7-1.4c1,0.5,1.7,0.8,2.3,0.8c0.4,0,0.6-0.2,0.6-0.4c0-0.3-0.2-0.4-1.4-0.8
				C65.6,12.7,65,12,65,11c0-1.1,0.8-2,2.3-2c0.8,0,1.7,0.1,2.8,0.6L69.6,10.9z"/>
			<path class="st0" d="M72.2,15.6V9.1h1.7v6.5H72.2z"/>
			<path class="st0" d="M82.4,12.4c0,2.1-1.2,3.3-3.3,3.3c-2.1,0-3.3-1.2-3.3-3.3c0-2.2,1.2-3.4,3.3-3.4C81.1,9,82.4,10.2,82.4,12.4
				z M80.6,12.4c0-1.2-0.6-1.8-1.5-1.8c-1,0-1.5,0.6-1.5,1.8c0,1.2,0.6,1.8,1.5,1.8C80,14.2,80.6,13.6,80.6,12.4z"/>
			<path class="st0" d="M88.7,15.6L86,12v3.7h-1.7V9.1h1.6l2.8,3.7V9.1h1.7v6.5H88.7z"/>
			<path class="st0" d="M102.1,12.4c0,2.1-1.2,3.3-3.3,3.3c-2.1,0-3.3-1.2-3.3-3.3c0-2.2,1.2-3.4,3.3-3.4
				C100.9,9,102.1,10.2,102.1,12.4z M100.4,12.4c0-1.2-0.6-1.8-1.5-1.8c-1,0-1.5,0.6-1.5,1.8c0,1.2,0.6,1.8,1.5,1.8
				C99.8,14.2,100.4,13.6,100.4,12.4z"/>
			<path class="st0" d="M108.3,12v1.5h-2.6v2.1H104V9.1h4.7v1.6h-3V12H108.3z"/>
			<path class="st0" d="M118.4,10.9c-1-0.4-1.5-0.5-2.1-0.5c-0.4,0-0.7,0.1-0.7,0.4c0,0.3,0.2,0.4,1.6,0.9c1.3,0.4,1.8,0.9,1.8,2
				c0,1.2-0.9,2-2.4,2c-0.8,0-2.2-0.3-3.1-0.9l0.7-1.4c1,0.5,1.7,0.8,2.3,0.8c0.4,0,0.6-0.2,0.6-0.4c0-0.3-0.2-0.4-1.4-0.8
				c-1.3-0.4-1.9-1.1-1.9-2.1c0-1.1,0.8-2,2.3-2c0.8,0,1.7,0.1,2.8,0.6L118.4,10.9z"/>
			<path class="st0" d="M124.1,10.7v4.9h-1.7v-4.9h-2V9.1h5.8v1.6H124.1z"/>
			<path class="st0" d="M133.7,12.5c0,2.2-1,3.2-3,3.2c-2,0-3-1-3-3.2V9.1h1.7v3.4c0,1.1,0.4,1.6,1.2,1.6c0.8,0,1.2-0.5,1.2-1.6V9.1
				h1.7V12.5z"/>
			<path class="st0" d="M138.1,9.1c2.4,0,3.7,1.3,3.7,3.3c0,2-1.4,3.2-3.7,3.2h-2.3V9.1H138.1z M138.1,14.1c1.3,0,2-0.5,2-1.7
				c0-1.2-0.6-1.7-2-1.7h-0.6v3.5H138.1z"/>
			<path class="st0" d="M143.7,15.6V9.1h4.8v1.6h-3.1v1h2.6v1.5h-2.6v0.9h3.2v1.5H143.7z"/>
			<path class="st0" d="M155,15.6l-2.8-3.7v3.7h-1.7V9.1h1.6l2.8,3.7V9.1h1.7v6.5H155z"/>
			<path class="st0" d="M162.1,10.7v4.9h-1.7v-4.9h-2V9.1h5.8v1.6H162.1z"/>
			<path class="st0" d="M169.2,15.6V9.1h1.7v4.9h2.9v1.6H169.2z"/>
			<path class="st0" d="M175.7,15.6V9.1h1.7v6.5H175.7z"/>
			<path class="st0" d="M184,12v1.5h-2.6v2.1h-1.7V9.1h4.7v1.6h-3V12H184z"/>
			<path class="st0" d="M186.3,15.6V9.1h4.8v1.6h-3.1v1h2.6v1.5h-2.6v0.9h3.2v1.5H186.3z"/>
		</g>
		<g>
			<path class="st0" d="M45.6,24.6c0,1.5-0.7,2.3-2.1,2.3c-1.4,0-2.1-0.8-2.1-2.3v-2.6h0.9v2.6c0,1,0.4,1.5,1.2,1.5
				c0.8,0,1.2-0.5,1.2-1.5v-2.6h0.9V24.6z"/>
			<path class="st0" d="M51.3,26.8l-2.5-3.3v3.3h-0.9v-4.9h0.8l2.5,3.4v-3.4h0.9v4.9H51.3z"/>
			<path class="st0" d="M54.5,26.8v-4.9h0.9v4.9H54.5z"/>
			<path class="st0" d="M59.2,26.8l-2-4.9h1l1.3,3.4c0.1,0.2,0.1,0.4,0.2,0.6c0-0.2,0.1-0.4,0.2-0.6l1.3-3.4h1l-2,4.9H59.2z"/>
			<path class="st0" d="M64,26.8v-4.9h3.4v0.9h-2.5V24H67v0.8h-2.1V26h2.5v0.8H64z"/>
			<path class="st0" d="M73.6,26.8h-1l-1.2-1.5h-1v1.5h-0.9v-4.9h1.9c1.3,0,2.1,0.6,2.1,1.7c0,0.7-0.4,1.3-1.1,1.5L73.6,26.8
				L73.6,26.8z M71.4,24.5c0.7,0,1.1-0.3,1.1-0.9c0-0.6-0.4-0.9-1.1-0.9h-1v1.8H71.4z"/>
			<path class="st0" d="M78.5,23c-0.6-0.2-1.1-0.3-1.6-0.3c-0.4,0-0.7,0.2-0.7,0.5c0,0.5,0.3,0.5,1.3,0.9c0.9,0.3,1.4,0.6,1.4,1.5
				c0,0.9-0.7,1.4-1.6,1.4c-0.7,0-1.6-0.3-2.2-0.6l0.4-0.7c0.7,0.3,1.3,0.5,1.8,0.5c0.4,0,0.7-0.2,0.7-0.5c0-0.4-0.2-0.6-1.2-0.9
				c-0.8-0.2-1.4-0.6-1.4-1.5c0-0.8,0.6-1.4,1.6-1.4c0.6,0,1.2,0.1,1.9,0.4L78.5,23z"/>
			<path class="st0" d="M80.9,26.8v-4.9h0.9v4.9H80.9z"/>
			<path class="st0" d="M86.2,22.8v4h-0.9v-4h-1.6v-0.9h4.2v0.9H86.2z"/>
			<path class="st0" d="M92,26.8h-0.9v-1.6l-1.8-3.3h1l1.1,2c0.1,0.1,0.2,0.3,0.2,0.5c0.1-0.2,0.1-0.3,0.2-0.5l1.1-2h1L92,25.2V26.8
				z"/>
			<path class="st0" d="M103.1,24.4c0,1.6-0.9,2.5-2.4,2.5c-1.5,0-2.4-0.9-2.4-2.5c0-1.6,0.9-2.5,2.4-2.5
				C102.3,21.9,103.1,22.8,103.1,24.4z M102.2,24.4c0-1.1-0.5-1.7-1.4-1.7c-0.9,0-1.4,0.6-1.4,1.7c0,1.1,0.5,1.7,1.4,1.7
				C101.7,26,102.2,25.5,102.2,24.4z"/>
			<path class="st0" d="M108.2,24.1V25h-2.1v1.8h-0.9v-4.9h3.3v0.9h-2.4v1.3H108.2z"/>
			<path class="st0" d="M116.4,24.1V25h-2.1v1.8h-0.9v-4.9h3.3v0.9h-2.4v1.3H116.4z"/>
			<path class="st0" d="M118.7,26.8v-4.9h0.9v4h2.3v0.9H118.7z"/>
			<path class="st0" d="M128.2,24.4c0,1.6-0.9,2.5-2.4,2.5c-1.5,0-2.4-0.9-2.4-2.5c0-1.6,0.9-2.5,2.4-2.5
				C127.3,21.9,128.2,22.8,128.2,24.4z M127.2,24.4c0-1.1-0.5-1.7-1.4-1.7c-0.9,0-1.4,0.6-1.4,1.7c0,1.1,0.5,1.7,1.4,1.7
				C126.7,26,127.2,25.5,127.2,24.4z"/>
			<path class="st0" d="M134.2,26.8h-1l-1.2-1.5h-1v1.5h-0.9v-4.9h1.9c1.3,0,2.1,0.6,2.1,1.7c0,0.7-0.4,1.3-1.1,1.5L134.2,26.8
				L134.2,26.8z M132.1,24.5c0.7,0,1.1-0.3,1.1-0.9c0-0.6-0.4-0.9-1.1-0.9h-1v1.8H132.1z"/>
			<path class="st0" d="M136.1,26.8v-4.9h0.9v4.9H136.1z"/>
			<path class="st0" d="M141.1,21.9c1.7,0,2.7,0.9,2.7,2.4c0,1.5-1,2.5-2.7,2.5h-1.6v-4.9H141.1z M141.1,26c1.1,0,1.8-0.6,1.8-1.6
				c0-1-0.6-1.6-1.8-1.6h-0.7V26H141.1z"/>
			<path class="st0" d="M146,26.8h-1l2-4.9h1.2l2,4.9h-1l-0.4-1h-2.4L146,26.8z M147.8,23.2c-0.1-0.2-0.1-0.4-0.2-0.5
				c0,0.1-0.1,0.3-0.2,0.5l-0.7,1.8h1.7L147.8,23.2z"/>
		</g>
	</g>
</g>
</svg>
